<?xml version="1.0" encoding="UTF-8"?>
<svg width="500px" height="120px" viewBox="0 0 500 120" version="1.1" xmlns="http://www.w3.org/2000/svg" xmlns:xlink="http://www.w3.org/1999/xlink">
    <title>Artboard</title>
    <g id="Artboard" stroke="none" stroke-width="1" fill="none" fill-rule="evenodd">
        <rect fill="#000000" x="0" y="0" width="500" height="120"></rect>
        <g id="Group" transform="translate(14.000000, 23.000000)" fill="#FFFFFF" fill-rule="nonzero">
            <path d="M132,11.8302142 L139.809411,11.8302142 L139.809411,20.4882486 C142.909146,15.0494574 147.151508,11.2710945 156,11 L156,18.1839601 C146.112728,18.6414374 139.809411,21.6912285 139.809411,33.5686506 L139.809411,60 L132,60 L132,11.8302142 Z" id="Path"></path>
            <path d="M158,37.0376192 L158,36.2744482 C158,21.373446 167.25513,11 180.455247,11 C191.547825,11 202,17.8867307 202,35.5112772 L202,38.0610966 L165.889682,38.0610966 C166.26058,49.2847387 171.486668,55.4948207 181.2811,55.4948207 C188.698782,55.4948207 193.014374,52.6672427 194.009218,46.9079639 L201.612055,46.9079639 C199.960057,56.8132134 191.986027,61.9999093 181.179999,61.9999093 C167.626029,62.034427 158,52.2161435 158,37.0376192 Z M194.194667,31.7643443 C193.469622,21.5816024 188.327883,17.5224497 180.455247,17.5224497 C172.666667,17.5224497 167.440579,22.9867244 166.15948,31.7643443 L194.194667,31.7643443 Z" id="Shape"></path>
            <path d="M209,45.9715587 L216.339947,45.9715587 C216.890487,51.8175353 219.876721,55.4949719 227.500517,55.4949719 C234.673819,55.4949719 237.843275,52.9451405 237.843275,47.6715449 C237.843275,42.4849157 234.123279,40.7846337 226.783041,39.3795642 C214.455083,37.0205265 210.284302,33.4297604 210.284302,24.8602268 C210.284302,15.7010372 218.892555,11 226.332547,11 C234.857332,11 242.197279,14.5908252 243.465294,25.2418732 L236.208525,25.2418732 C235.124022,19.8643025 232.221547,17.5051168 226.232502,17.5051168 C220.794287,17.5051168 217.257513,20.3326787 217.257513,24.5827033 C217.257513,29.0061579 219.60974,30.8101193 228.317747,32.4062782 C238.110257,34.2970581 245,36.5519728 245,47.0121976 C245,55.9806823 239.111291,62 227.583694,62 C216.25677,62 209.450204,56.0501962 209,45.9715587 Z" id="Path"></path>
            <path d="M305.017249,11.8302411 L312.454445,11.8302411 L312.454445,19.4716605 C314.599071,14.9647364 319.808271,11 327.509951,11 C337.189518,11 344,16.4388073 344,30.4339287 L344,60 L336.562804,60 L336.562804,29.8748681 C336.562804,21.4031787 333.067006,17.6248247 325.532065,17.6248247 C318.620964,17.6248247 312.437196,22.1317488 312.437196,30.7898784 L312.437196,59.9829537 L305,59.9829537 L305,11.8302411 L305.017249,11.8302411 Z" id="Path"></path>
            <path d="M352,47.4856845 C352,36.0750739 363.586286,32.2081579 375.700672,32.2081579 L382.493433,32.2081579 L382.493433,28.6185528 C382.493433,20.7977248 379.597587,17.5029066 372.35507,17.5029066 C365.849572,17.5029066 362.219609,20.3295077 361.505803,26.3641973 L353.999236,26.3641973 C354.997404,15.1445225 363.586286,11 372.72358,11 C381.759316,11 390,14.8670638 390,28.6185528 L390,61.1504436 L382.493433,61.1504436 L382.493433,54.9249957 C378.965027,59.5376761 374.719914,62 367.747251,62 C358.958155,62 352,57.5608975 352,47.4856845 Z M382.493433,43.8961385 L382.493433,37.7747782 L375.985034,37.7747782 C366.482132,37.7747782 359.523977,40.2196556 359.523977,47.4856845 C359.523977,52.5839102 361.871411,55.7745521 368.478467,55.7745521 C376.434789,55.7745521 382.493433,51.5261785 382.493433,43.8961385 Z" id="Shape"></path>
            <path d="M401.799285,49.0459136 L401.799285,18.7620735 L395,18.7620735 L395,12.1899395 L401.799285,12.1899395 L401.799285,1 L409.316272,1 L409.316272,12.1899395 L420.366562,12.1899395 L420.366562,18.7620735 L409.316272,18.7620735 L409.316272,48.2847264 C409.316272,53.0756939 411.399642,55.4276771 415.200268,55.4276771 C417.550961,55.4276771 419.367009,55.0472309 421,54.4072555 L421,60.979537 C419.465802,61.5502063 417.649754,62 414.566831,62 C405.966026,62.0170639 401.799285,56.7421334 401.799285,49.0459136 Z" id="Path"></path>
            <path d="M427,37.0376192 L427,36.2744482 C427,21.373446 436.25496,11 449.457017,11 C460.548861,11 471,17.8867307 471,35.5112772 L471,38.0610966 L434.891256,38.0610966 C435.261572,49.2847387 440.487142,55.4948207 450.28288,55.4948207 C457.700955,55.4948207 462.01543,52.6672427 463.011756,46.9079639 L470.61205,46.9079639 C468.960323,56.8132134 460.986774,61.9999093 450.180015,61.9999093 C436.628215,62.034427 427,52.2161435 427,37.0376192 Z M463.196914,31.7643443 C462.470977,21.5816024 457.3277,17.5224497 449.457017,17.5224497 C441.668626,17.5224497 436.440118,22.9867244 435.161646,31.7643443 L463.196914,31.7643443 Z" id="Shape"></path>
            <path d="M274.50056,11 C260.95944,11 250,22.4238799 250,36.5000887 C250,50.5935607 260.975991,62 274.50056,62 C288.04168,62 298.999979,50.5761201 298.999979,36.5000887 C299.017381,22.4238799 288.04168,11 274.50056,11 Z M291.206424,36.9508835 C291.206424,48.0626064 284.760498,55.5168314 274.517111,55.5168314 C264.173837,55.5168314 257.811537,48.1666587 257.811537,36.9508835 L257.811537,36.1879317 C257.811537,24.8854857 264.257173,17.5353425 274.517111,17.5353425 C284.677162,17.5353425 291.206424,24.8854857 291.206424,36.2919841 L291.206424,36.9508835 Z" id="Shape"></path>
            <path d="M26.3171783,36.8081878 C26.3171783,29.6658586 29.260315,23.225729 34,18.6182636 L15.4001579,0 C15.3146023,0.0856406274 15.2119535,0.171281109 15.1263979,0.274049862 C10.3865637,5.0185434 6.65630358,10.5509132 4.07248256,16.6999054 C1.36890458,23.0715733 0,29.8373049 0,36.8081878 C0,43.7793627 1.36890458,50.5452111 4.05538934,56.9339944 C6.58784119,62.9287726 10.1983295,68.323927 14.7670524,73 L33.384286,54.3646369 C29.0036482,49.8086054 26.3171783,43.6254408 26.3171783,36.8081878 Z" id="Path"></path>
            <path d="M96.9465243,56.9377633 C99.631747,50.5674148 101,43.8034456 101,36.8166778 C101,29.8474302 99.631747,23.0832858 96.9465243,16.6960012 C94.3468733,10.5484514 90.6186893,5.01735021 85.8982312,0.273985428 C85.8129577,0.188365036 85.7100927,0.102744645 85.6248191,0 L67,18.6481322 C71.7374532,23.2545167 74.6790929,29.6932523 74.6790929,36.833906 C74.6790929,43.6492678 71.9938702,49.831274 67.632694,54.3690084 L86.2405181,73 C90.8068278,68.3250239 94.3984548,62.9311352 96.9465243,56.9377633 Z" id="Path"></path>
        </g>
    </g>
</svg>